<?xml version="1.0" encoding="UTF-8" standalone="no"?>
<svg
   xmlns:dc="http://purl.org/dc/elements/1.1/"
   xmlns:cc="http://creativecommons.org/ns#"
   xmlns:rdf="http://www.w3.org/1999/02/22-rdf-syntax-ns#"
   xmlns:svg="http://www.w3.org/2000/svg"
   xmlns="http://www.w3.org/2000/svg"
   xmlns:sodipodi="http://sodipodi.sourceforge.net/DTD/sodipodi-0.dtd"
   xmlns:inkscape="http://www.inkscape.org/namespaces/inkscape"
   width="140"
   height="140"
   version="1.1"
   id="svg8"
   sodipodi:docname="cyberscooty-clean_man.svg"
   inkscape:version="0.92.2 (5c3e80d, 2017-08-06)">
  <metadata
     id="metadata14">
    <rdf:RDF>
      <cc:Work
         rdf:about="">
        <dc:format>image/svg+xml</dc:format>
        <dc:type
           rdf:resource="http://purl.org/dc/dcmitype/StillImage" />
        <dc:title></dc:title>
      </cc:Work>
    </rdf:RDF>
  </metadata>
  <defs
     id="defs12" />
  <sodipodi:namedview
     pagecolor="#ffffff"
     bordercolor="#666666"
     borderopacity="1"
     objecttolerance="10"
     gridtolerance="10"
     guidetolerance="10"
     inkscape:pageopacity="0"
     inkscape:pageshadow="2"
     inkscape:window-width="1920"
     inkscape:window-height="1017"
     id="namedview10"
     showgrid="false"
     inkscape:zoom="3.3714286"
     inkscape:cx="161.70527"
     inkscape:cy="61.175744"
     inkscape:window-x="1912"
     inkscape:window-y="-8"
     inkscape:window-maximized="1"
     inkscape:current-layer="svg8" />
  <g
     id="g829">
    <path
       d="M 139.4,70 C 139.4,33.66 108.2,4.02 69.99,4.02 31.78,4.02 0.61,33.66 0.61,70 c 0,36.34 31.17,65.98 69.38,65.98 38.22,0 69.39,-29.64 69.39,-65.98 z"
       id="path2"
       inkscape:connector-curvature="0"
       style="fill:#8dc63f" />
    <path
       sodipodi:nodetypes="cssccccccccscccccccccsccscccsccccccssscscccccccccscccsssccssscccsccccsccsccscsccscscccccs"
       d="m 28.14,97.52 c 0.44,0 0.88,-0.1 1.33,-0.1 h 0.7 c 0.55,0 1.09,0 1.62,0.1 0.44,0 0.89,0.1 1.32,0.14 0.37,0.1 0.73,0.12 1.09,0.19 0.28,0.1 0.55,0.13 0.83,0.19 -0.15,-0.31 -0.31,-0.61 -0.49,-0.88 -0.24,-0.35 -0.51,-0.67 -0.78,-0.93 -0.21,-0.19 -0.44,-0.35 -0.67,-0.46 -0.1,-0.1 -0.2,-0.1 -0.29,-0.14 -0.83,-0.36 -1.72,-0.55 -2.62,-0.55 -0.55,0 -1.09,0.1 -1.62,0.21 -0.34,0.1 -0.68,0.2 -1.01,0.35 -0.1,0 -0.19,0.1 -0.28,0.13 -0.24,0.11 -0.47,0.28 -0.69,0.48 -0.49,0.45 -0.92,1.07 -1.25,1.79 0.55,-0.14 1.12,-0.26 1.71,-0.36 0.36,-0.1 0.72,-0.1 1.1,-0.13 z m 17.97,20.03 c -3.5,-1.75 -6.35,-5.15 -6.35,-9.72 0,-4.56 -2.68,-6.54 -3.73,-7.14 -1.29,-0.5 -2.78,-0.85 -4.39,-0.99 -0.48,0 -0.98,-0.1 -1.47,-0.1 h -0.65 c -2.31,0.1 -4.44,0.6 -6.09,1.42 -2.5,1.66 -2.28,5.23 -2.28,5.23 0,11.32 8.51,13.84 16.08,13.84 3.34,0 6.5,-0.48 8.66,-0.93 0.83,-0.16 0.98,-1.28 0.22,-1.66 z M 32.78,93.23 V 60.65 57.87 25.99 c 0,-1.17 -0.95,-2.12 -2.12,-2.12 -1.16,0 -2.11,0.95 -2.11,2.12 v 66.99 c 0.52,-0.1 1.08,-0.15 1.62,-0.15 0.89,0 1.78,0.13 2.61,0.4 z M 90.76,77.39 c 1.62,-1.2 1.96,-3.5 0.75,-5.12 L 73.95,48.67 C 70.22,43.69 62.77,43.91 58.12,47.38 L 43.58,58.2 34.8,53.34 v 8.38 l 7.29,4.05 c 0.55,0.3 1.17,0.45 1.78,0.45 0.78,0 1.55,-0.24 2.2,-0.72 l 8.28,-6.17 v 35.27 18.95 c 0,2.72 2.2,4.92 4.92,4.92 2.73,0 4.93,-2.2 4.93,-4.92 V 94.58 h 2.37 v 18.95 c 0,2.72 2.21,4.92 4.93,4.92 2.72,0 4.92,-2.2 4.92,-4.92 V 94.58 64.23 l 9.23,12.4 c 0.72,0.97 1.82,1.47 2.95,1.47 0.74,0 1.5,-0.22 2.16,-0.71 z M 112.97,95.5 H 101.82 L 91.51,87.95 c -1.01,-0.74 -2.42,-0.53 -3.15,0.48 -0.73,1.01 -0.52,2.42 0.49,3.15 l 5.33,3.92 h -3.55 c -0.77,0 -1.36,0.7 -1.22,1.45 l 3.28,19.09 c 0.11,0.59 0.62,1.02 1.22,1.02 h 7.89 8 c 0.6,0 1.12,-0.43 1.22,-1.03 l 3.17,-19.09 c 0.14,-0.75 -0.44,-1.44 -1.2,-1.44 z m -11.26,6.67 c -0.96,0.15 -1.85,-0.51 -1.99,-1.46 -0.1,-0.37 0,-0.73 0.16,-1.05 0.25,-0.49 0.73,-0.86 1.31,-0.94 0.64,-0.1 1.27,0.17 1.64,0.66 0.18,0.23 0.31,0.5 0.35,0.81 0.14,0.94 -0.51,1.83 -1.47,1.98 z"
       id="path4"
       inkscape:connector-curvature="0"
       style="fill:#ffffff" />
    <path
       sodipodi:nodetypes="sssss"
       inkscape:connector-curvature="0"
       id="path821"
       d="m 75.335872,30.773306 c 0,4.872934 -4.389752,10.971468 -9.970409,10.971468 -5.580657,0 -9.970408,-5.431162 -9.970408,-10.971468 0,-6.059374 2.980853,-10.971468 9.970408,-10.971468 6.989556,0 9.970409,4.912093 9.970409,10.971468 z"
       style="opacity:1;fill:#ffffff;fill-opacity:1;fill-rule:nonzero;stroke:none;stroke-width:0.20621678;stroke-linecap:round;stroke-linejoin:round;stroke-miterlimit:4;stroke-dasharray:none;stroke-dashoffset:0;stroke-opacity:1" />
  </g>
</svg>
