<svg class="" xml:space="preserve" style="enable-background:new 0 0 512 512" viewBox="0 0 511.991 511.991" y="0" x="0" height="512" width="512" xmlns:xlink="http://www.w3.org/1999/xlink" version="1.1" xmlns="http://www.w3.org/2000/svg"><g><path class="" data-original="#000000" opacity="1" fill="#397356" d="M461.292 425.682c-13.856-1.23-28 2.515-40.283 10.408l-45.081-65.182s78.873-.111 79.203-.113c22.377-.658 40.048-19.398 39.391-41.775l-1.259-42.84c-.311-10.57-6.601-20.231-16.384-24.243-9.732-3.991-20.524-1.984-28.177 5.252-9.955 9.411-16.491 22.23-18.823 36.401a2637.485 2637.485 0 0 1-26.026-4.461c-5.245-.922-10.518 2.231-11.779 7.405-1.382 5.671 2.322 11.239 7.979 12.234 8.351 1.469 18.713 3.272 29.079 4.969l.806 27.443-204.602-.758c-29.427 0-53.938-21.451-58.71-49.53h111.36c7.572 0 18.189.938 32.461 2.866.454.061.905.091 1.352.091 5.037 0 9.408-3.807 9.937-8.997.553-5.43-3.564-10.235-8.974-10.963-10.735-1.444-19.608-2.354-26.875-2.756l-18.56-75.588c-1.589-6.462-3.945-13.076-6.928-19.646 7.241-10.891 36.232-54.468 36.232-54.468 8.588-12.907 10.806-28.779 6.085-43.546-4.724-14.773-15.742-26.42-30.233-31.955L193.12 25.631C177.676 4.55 149.925-5.404 123.683 2.952c-28.31 9.014-45.735 36.427-43.327 64.859l-51.005 60.736c-9.878 11.754-13.877 27.144-10.975 42.219 3.212 16.734 15.385 31.11 31.769 37.518l26.432 10.335.001 283.371c0 5.523 4.478 10 10 10h40.736c5.523 0 10-4.477 10-10v-90.834h90.899v90.834c0 5.523 4.477 10 10 10h40.736c5.523 0 10-4.477 10-10V386.381c11.047 12.528 99.048 112.809 99.048 112.809 7.425 7.904 17.484 12.443 28.324 12.78.434.014.865.021 1.297.021 10.363 0 20.181-3.883 27.768-11.012l31.671-29.757c7.685-7.219 10.318-17.892 6.874-27.855-3.446-9.974-12.121-16.751-22.639-17.685zm1.15-143.961c2.732-2.582 5.713-1.75 6.868-1.272 1.149.476 3.834 1.984 3.943 5.719l1.276 43.439c.334 11.354-8.632 20.863-19.986 21.197l-4.603.135-1-34.045v.001c-.401-13.653 4.646-26.802 13.502-35.174zM268.95 370.42v20.736H96.578V370.42zm-96.283-20h-35.351v-92.823l6.729 27.411a79.742 79.742 0 0 1 2.034 12.463c1.731 21.015 11.661 39.734 26.588 52.949zM283.665 93.973c2.86 8.945 1.517 18.559-3.685 26.379 0 0-25.186 37.86-30.527 45.891a146.156 146.156 0 0 0-13.415-17.239 134.152 134.152 0 0 0-7.886-7.971 57749.584 57749.584 0 0 1 21.993-30.735c1.188-1.658 1.959-3.612 2.029-5.65a10.017 10.017 0 0 0-5.917-9.527c-7.941-3.549-34.768-15.556-34.768-15.556a62.392 62.392 0 0 0-2.872-15.974l-3.854-12.107 60.585 23.128c8.779 3.353 15.456 10.41 18.317 19.361zm-74.707 6.37 17.961 8.039c-4.833 6.752-9.66 13.502-14.488 20.251-4.64-3.028-9.361-5.585-14.109-7.636a63.04 63.04 0 0 0 10.636-20.654zm-79.207-78.334A42.355 42.355 0 0 1 142.627 20c18.027 0 34.804 11.562 40.559 29.634l6.375 20.023c7.114 22.348-5.278 46.318-27.626 53.434s-46.317-5.277-53.435-27.625l-6.375-20.023c-7.114-22.348 5.279-46.318 27.626-53.434zm-19.556 109.534a63.037 63.037 0 0 0 15.074 8.833 56.376 56.376 0 0 0-2.498 4.466c-2.37 4.772-6.374 8.281-11.307 9.924-5.107 1.702-10.717.971-15.406-1.673l-1.396-.787zM38.016 166.99c-1.758-9.135.664-18.457 6.649-25.578L86.34 91.785l3.104 9.749a62.366 62.366 0 0 0 7.05 14.936l-24.665 32.971a10 10 0 0 0 3.099 14.702c8.933 5.122 19.986 12.235 30.583 11.608a38.778 38.778 0 0 0 11.385-1.725c10.282-3.159 18.953-10.553 23.776-20.263a35.067 35.067 0 0 1 2.667-4.492 34.094 34.094 0 0 1 3.493-4.213 61.85 61.85 0 0 0 2.24.045c6.269 0 12.646-.952 18.932-2.953a62.481 62.481 0 0 0 13.102-5.918c30.57 7.192 59.385 43.919 66.8 74.084l17.329 70.575H163.629l-12.26-49.944a10.002 10.002 0 0 0-6.07-6.929L57.43 189.659c-10.045-3.93-17.483-12.614-19.414-22.669zm79.301 67.56v115.87h-20.74V226.44zm-.003 257.44H96.578v-80.834h20.736zm130.899 0v-80.834h20.736v80.834zm53.421-121.455 49.893.251 54.04 78.137-19.773 18.577c-13.276-14.617-72.43-83.73-84.16-96.965zm161.73 86.111-31.672 29.757a20.444 20.444 0 0 1-14.712 5.578c-5.63-.166-10.915-2.77-14.772-6.875l-2.787-2.966 24.822-23.321v-.001c9.953-9.352 23.137-14.289 35.281-13.214 3.744.333 5.098 3.116 5.506 4.297.406 1.176 1.057 4.186-1.666 6.745z"></path><path class="" data-original="#000000" opacity="1" fill="#397356" d="M355.092 310.84a10.012 10.012 0 0 0 11.555-11.554c-.68-4.145-4.022-7.487-8.167-8.168a10.012 10.012 0 0 0-11.555 11.555c.68 4.145 4.023 7.487 8.167 8.167z"></path></g></svg>